<svg enable-background="new 0 0 512 512" fill="#b26e77" viewBox="0 0 512 512"
     xmlns="http://www.w3.org/2000/svg">
    <g>
        <path d="m499.555 55.694c-.5-6.673-3.981-12.629-9.549-16.341-8.16-5.441-18.979-4.689-26.309 1.826l-61.891 55.014h-53.777v-24.845c9.72-7.216 16.032-18.775 16.032-31.783 0-21.816-17.749-39.565-39.565-39.565-19.269 0-35.356 13.85-38.851 32.115-.409-.021-.818-.051-1.229-.051-12.976 0-23.532 10.557-23.532 23.532 0 12.976 10.557 23.532 23.532 23.532 6.393 0 12.26-2.526 16.548-6.771v34.401c-4.981 5.58-8.016 12.932-8.016 20.983v27.054c0 4.142 3.358 7.5 7.5 7.5s7.5-3.358 7.5-7.5v-27.054c0-9.125 7.423-16.548 16.548-16.548h72.527l6.593 16.812c-1.102.151-2.214.253-3.339.253h-60.417c-4.142 0-7.5 3.358-7.5 7.5s3.358 7.5 7.5 7.5h17.789c-.192 27.263-12.422 54.768-24.578 75.422l-26.635-35.332c-1.417-1.88-3.635-2.985-5.989-2.985-22.931 0-39.868 12.135-50.04 22.316-4.242 4.246-9.982 6.722-16.161 6.971l-69.081 2.784c-4.021.162-7.198 3.469-7.198 7.494 0 2.535.505 4.884 1.296 7.083l-106.856 13.357-10.784-2.696c-7.08-1.769-14.438-.209-20.189 4.281s-9.05 11.251-9.05 18.548v11.531c0 4.142 3.358 7.5 7.5 7.5h155.383c1.657 1.347 3.387 2.548 5.039 3.692 2.633 1.823 5.355 3.708 6.522 5.452 1.192 1.781 1.905 5.044 2.593 8.2 1.188 5.441 2.534 11.609 7.135 16.21s10.768 5.948 16.209 7.136c3.156.689 6.419 1.402 8.201 2.594 1.744 1.168 3.629 3.89 5.452 6.523 3.187 4.603 6.799 9.82 12.864 12.335 5.963 2.473 12.15 1.361 17.609.378 3.208-.577 6.525-1.174 8.685-.747 1.993.394 4.742 2.163 7.4 3.873 4.734 3.046 10.101 6.498 16.744 6.498 3.209 0 6.119-.81 8.804-1.986l-12.805 115.244h-9.835v-93.37c0-4.142-3.358-7.5-7.5-7.5s-7.5 3.358-7.5 7.5v132.936c0 4.142 3.358 7.5 7.5 7.5h48.097c2.841 0 5.438-1.605 6.708-4.146 1.271-2.541.997-5.582-.708-7.854l-22.266-29.688 14.344-129.097c2.139-.207 5.103.32 7.988.839 5.458.983 11.644 2.096 17.608-.377 2.901-1.203 4.746-4.087 4.621-7.225l-3.952-99.723c5.058-7.927 10.398-17.186 15.236-27.341h76.194c11.02 0 19.986-8.966 19.986-19.986 0-10.378-8.105-19.131-18.453-19.927l-62.907-4.839c1.102-6.394 1.732-12.876 1.772-19.377h27.627c9.864 0 19.315-3.654 26.614-10.289l65.66-59.691c4.95-4.503 7.503-10.912 7.002-17.585zm-455.107 208.838h-17.065v-4.031c0-2.646 1.196-5.097 3.281-6.725 2.086-1.628 4.754-2.194 7.32-1.552l6.463 1.616v10.692zm15-9.927 107.725-13.466c.565 1.071.998 2.073 1.168 2.931.427 2.159-.17 5.476-.747 8.683-.664 3.691-1.385 7.716-1.019 11.779h-107.127zm216.435 242.395v-17.064h12.798l12.799 17.064zm49.319-169.709c-4.365-.785-9.312-1.676-14.251-.699-4.795.949-8.944 3.618-12.604 5.973-3.143 2.022-6.393 4.113-8.627 4.113s-5.485-2.091-8.628-4.113c-3.661-2.355-7.81-5.024-12.605-5.973-1.549-.306-3.098-.429-4.63-.429-3.354 0-6.625.589-9.622 1.128-3.594.646-7.312 1.315-9.207.529-1.989-.825-4.169-3.973-6.278-7.018-2.498-3.608-5.329-7.697-9.439-10.449-4.146-2.776-9.034-3.843-13.347-4.785-3.594-.785-7.311-1.596-8.802-3.087s-2.302-5.208-3.086-8.802c-.941-4.312-2.008-9.199-4.784-13.345-2.752-4.111-6.841-6.942-10.449-9.44-3.044-2.108-6.192-4.288-7.017-6.277-.786-1.895-.117-5.611.53-9.205.786-4.365 1.676-9.313.699-14.251-.949-4.795-3.618-8.944-5.973-12.604-.332-.515-.665-1.033-.99-1.55l58.76-2.368c9.958-.401 19.251-4.435 26.167-11.356 7.601-7.608 19.795-16.575 35.792-17.781l28.967 38.426 3.728 94.065c-1.368-.174-2.846-.44-4.304-.702zm107.432-144.861c2.582.199 4.604 2.382 4.604 4.971 0 2.749-2.237 4.986-4.986 4.986h-69.744c1.864-4.867 3.55-9.868 4.99-14.968zm-108.138-118.301c-4.956 0-9.571-1.48-13.435-4.015l35.136-32.042c1.825 3.432 2.863 7.343 2.863 11.493.001 13.544-11.019 24.564-24.564 24.564zm0-49.129c3.931 0 7.646.933 10.943 2.582l-33.841 30.861c-1.072-2.756-1.667-5.748-1.667-8.878.001-13.545 11.02-24.565 24.565-24.565zm-40.08 49.129c-4.705 0-8.532-3.828-8.532-8.532 0-4.705 3.828-8.532 8.532-8.532.424 0 .842.036 1.256.096.965 4.942 2.855 9.554 5.479 13.656-1.591 2.032-4.066 3.312-6.735 3.312zm31.548 33.246v-19.183c2.75.607 5.603.937 8.532.937s5.782-.33 8.532-.937v18.001h-8.532c-2.957.001-5.816.418-8.532 1.182zm166.497-35.197-65.276 59.342-5.504-14.036 61.981-55.095c2.235-1.987 5.534-2.216 8.022-.557 1.698 1.132 2.759 2.948 2.912 4.983.154 2.036-.625 3.991-2.135 5.363z"/>
    </g>
</svg>