<svg id="Icons" viewBox="0 0 74 74" fill="#b26e77" xmlns="http://www.w3.org/2000/svg">
    <path d="m57.822 72a27.953 27.953 0 0 1 -11-2.826c-7.769-3.471-16.409-9.745-24.33-17.665s-14.192-16.563-17.664-24.332c-3.6-8.065-3.765-14.33-.455-17.639l6.727-6.724a2.782 2.782 0 0 1 3.931 0l13.011 13.015a2.784 2.784 0 0 1 0 3.931l-4.211 4.211c-2.162 2.162.808 9.951 8.527 17.671s15.509 10.691 17.671 8.527l4.211-4.211a2.784 2.784 0 0 1 3.931 0l13.015 13.015a2.782 2.782 0 0 1 0 3.931l-6.724 6.723a9.047 9.047 0 0 1 -6.64 2.373zm-44.76-68a.778.778 0 0 0 -.552.228l-6.723 6.724c-2.643 2.643-2.328 8.259.867 15.409 3.374 7.551 9.5 15.979 17.253 23.732s16.181 13.879 23.732 17.253c7.15 3.195 12.766 3.51 15.409.867l6.724-6.723a.781.781 0 0 0 0-1.1l-13.015-13.018a.779.779 0 0 0 -1.1 0l-4.211 4.21c-3.411 3.413-12.224-.254-20.5-8.527s-11.939-17.087-8.527-20.5l4.211-4.211a.78.78 0 0 0 0-1.1l-13.017-13.016a.778.778 0 0 0 -.551-.228z"/>
    <path d="m23.123 24.265a1 1 0 0 1 -.707-.293l-15.532-15.532a1 1 0 0 1 1.416-1.414l15.53 15.532a1 1 0 0 1 -.707 1.707z"/>
    <path d="m66.267 67.409a.993.993 0 0 1 -.707-.293l-15.532-15.532a1 1 0 0 1 1.414-1.414l15.532 15.53a1 1 0 0 1 -.707 1.707z"/>
    <path d="m70.708 35.417a1 1 0 0 1 -1-1 30.451 30.451 0 0 0 -30.416-30.417 1 1 0 0 1 0-2 32.453 32.453 0 0 1 32.416 32.417 1 1 0 0 1 -1 1z"/>
    <path d="m60.241 35.417a1 1 0 0 1 -1-1 19.971 19.971 0 0 0 -19.949-19.949 1 1 0 0 1 0-2 21.973 21.973 0 0 1 21.949 21.949 1 1 0 0 1 -1 1z"/>
    <path d="m49.773 35.417a1 1 0 0 1 -1-1 9.492 9.492 0 0 0 -9.481-9.482 1 1 0 0 1 0-2 11.494 11.494 0 0 1 11.481 11.482 1 1 0 0 1 -1 1z"/>
</svg>