<svg xmlns="http://www.w3.org/2000/svg" viewBox="0 0 512 512" fill="#b26e77">
    <g id="Outline">
        <path d="M336,184a8.009,8.009,0,0,1-8-8H312a24,24,0,0,0,48,0H344A8.009,8.009,0,0,1,336,184Z"/>
        <path d="M300,128a12,12,0,1,0,12,12A12.013,12.013,0,0,0,300,128Z"/>
        <path d="M372,128a12,12,0,1,0,12,12A12.013,12.013,0,0,0,372,128Z"/>
        <path d="M416,272H376V237.317A80.216,80.216,0,0,0,414.362,184H416a31.989,31.989,0,0,0,16-59.695V112a95.577,95.577,0,0,0-1.831-18.609A39.991,39.991,0,0,0,416,16a39.816,39.816,0,0,0-30.25,13.866A94.989,94.989,0,0,0,336,16a96.108,96.108,0,0,0-96,96v12.305a32.22,32.22,0,0,0-8,6.563V24a8,8,0,0,0-8-8H139.179a55.788,55.788,0,0,0-53.4,39.137L52.213,161.426A90.759,90.759,0,0,0,86.93,263.262l62.9,43.758-21.783,188.1,15.9,1.768,20.667-179.578L216,353.05V496h16v-4.727l37.019-37.666a8,8,0,0,0,.419-10.753c-13.792-16.414-17.287-39.091-8.9-57.776,2.557-5.7,6.894-11.276,12.891-16.581l8.591-7.6,51.784,14.8a7.991,7.991,0,0,0,4.4,0l51.784-14.8,8.591,7.6c6,5.305,10.334,10.884,12.891,16.581,8.385,18.685,4.89,41.362-8.9,57.776a8.094,8.094,0,0,0-.989,1.487l-24.687,48,14.228,7.318L393,496h15V466.827l7.4-14.392c17.221-21.026,21.418-49.932,10.66-73.908-3.5-7.785-9.176-15.192-16.887-22.014l-9.564-8.462L392.938,288H416a32.036,32.036,0,0,1,32,32V496h16V320A48.053,48.053,0,0,0,416,272Zm-36.242-57.3a63.516,63.516,0,0,1-48.033,17.156C298.234,229.692,272,200.558,272,165.532V128.814a65.429,65.429,0,0,1,86.938-47.668l.036.013.022.008a64.986,64.986,0,0,1,41,47.647V168A63.39,63.39,0,0,1,379.758,214.7ZM376.939,72.011l10.594-21.188c1.807,1.515,3.5,3.048,5.05,4.593a79.884,79.884,0,0,1,14.892,20.653L393.926,85.1A80.887,80.887,0,0,0,376.939,72.011ZM362.357,65.4A81.241,81.241,0,0,0,344,61.4V32.4a78.717,78.717,0,0,1,30.216,9.274ZM328,61.4a81.466,81.466,0,0,0-18.357,4L297.806,41.723A79.414,79.414,0,0,1,328,32.4ZM416,168V136a16,16,0,0,1,0,32Zm-1.72-48a81.291,81.291,0,0,0-10.23-22.418l9.239-6.16A78.971,78.971,0,0,1,416,112v8ZM440,56a24.162,24.162,0,0,1-14.266,21.926A96,96,0,0,0,403.9,44.1c-1.606-1.607-3.334-3.2-5.16-4.765A23.993,23.993,0,0,1,440,56ZM284.485,50.86l10.576,21.151A80.887,80.887,0,0,0,278.074,85.1l-13.525-9.017A80.483,80.483,0,0,1,284.485,50.86ZM256,112a79.8,79.8,0,0,1,2.7-20.586l9.252,6.168A81.291,81.291,0,0,0,257.72,120H256Zm0,24v32a16,16,0,0,1,0-32Zm0,48h2.042A82.628,82.628,0,0,0,296,236.988V272H242.294L232,265.566V173.132A31.923,31.923,0,0,0,256,184ZM149.47,167.59l17.747,5.915L161,221.188l-40.384-25.24L135,88h28.038l-2.576,12.879-15.122,22.683A8.005,8.005,0,0,0,144,128v32A8,8,0,0,0,149.47,167.59ZM180.948,192H216v16H178.867ZM216,176H183.028l.3-2.335A43.038,43.038,0,0,0,208,134.7V106.784a27.036,27.036,0,0,1,8-19.221Zm-39.238,48H216v31.566L175.894,230.5ZM183.92,81.132,190.939,32H216V67.719l-4.808,3.205A43.013,43.013,0,0,0,192,106.784V134.7a27.053,27.053,0,0,1-16.2,24.8L160,154.234V130.422l14.656-21.984a8,8,0,0,0,1.189-2.869l3.677-18.387A8,8,0,0,0,183.92,81.132ZM232,468.447V364.18l3.34,2.324,4.709,42.38.038,0a72.876,72.876,0,0,0,12.679,38.439Zm30.825-111.934A74.454,74.454,0,0,0,251.683,368.7l-3.732-33.584-15.9,1.768.944,8.5L96.066,250.127a74.757,74.757,0,0,1-28.595-83.883L101.035,59.955A39.848,39.848,0,0,1,139.179,32h35.6l-5.714,40H128a8,8,0,0,0-7.93,6.942l-16,120a8,8,0,0,0,3.69,7.842l128,80A8,8,0,0,0,240,288h39.161l-5.932,59.308ZM383.3,346.165,336,359.68l-46.6-13.314L295.24,288H296a16.019,16.019,0,0,0,16-16V244.262a76.917,76.917,0,0,0,18.691,3.565q2.7.174,5.383.175A79.928,79.928,0,0,0,360,244.352V272a16.019,16.019,0,0,0,16,16h.839Z"/>
    </g>
</svg>
