<svg viewBox="0 0 74 74" fill="#b26e77" xmlns="http://www.w3.org/2000/svg">
    <path d="m66.683 36.812a1 1 0 0 1 -1-1v-13.923a1.161 1.161 0 0 0 -1.16-1.159h-16.19a1 1 0 0 1 0-2h16.19a3.163 3.163 0 0 1 3.16 3.159v13.923a1 1 0 0 1 -1 1z"/>
    <path d="m34.19 67.14h-2.97a1 1 0 0 1 0-2h2.97a1 1 0 0 1 0 2z"/>
    <path d="m14.32 67.14h-3.76a8.564 8.564 0 0 1 -8.56-8.55v-44.8a1 1 0 0 1 2 0v44.8a6.562 6.562 0 0 0 6.56 6.55h3.76a1 1 0 1 1 0 2z"/>
    <path d="m24.22 67.14h-2.9a1 1 0 0 1 0-2h2.9a1 1 0 0 1 0 2z"/>
    <path d="m64.52 67.14h-23.33a1 1 0 0 1 0-2h23.33a1.148 1.148 0 0 0 1.16-1.16v-13.92a1 1 0 0 1 2 0v13.92a3.163 3.163 0 0 1 -3.16 3.16z"/>
    <path d="m69.905 51.061h-15.527a8.125 8.125 0 0 1 0-16.249h15.527a2.1 2.1 0 0 1 2.095 2.095v12.059a2.1 2.1 0 0 1 -2.095 2.095zm-15.527-14.249a6.125 6.125 0 0 0 0 12.249h15.527a.1.1 0 0 0 .095-.095v-12.059a.1.1 0 0 0 -.095-.095z"/>
    <path d="m54.632 46.657a4.018 4.018 0 1 1 4.017-4.017 4.022 4.022 0 0 1 -4.017 4.017zm0-6.035a2.018 2.018 0 1 0 2.017 2.018 2.021 2.021 0 0 0 -2.017-2.018z"/>
    <path d="m48.333 20.73h-39.396a6.937 6.937 0 1 1 0-13.873h39.4a1 1 0 0 1 1 1v11.873a1 1 0 0 1 -1.004 1zm-39.396-11.873a4.937 4.937 0 1 0 0 9.873h38.4v-9.873z"/>
</svg>